<svg width="306" height="308" viewBox="0 0 306 308" fill="none" xmlns="http://www.w3.org/2000/svg">
<g opacity="0.5">
<path d="M306 200.369H0V200.522H306V200.369Z" fill="#EBEBEB"/>
<path d="M275.339 210.216H255.069V210.369H275.339V210.216Z" fill="#EBEBEB"/>
<path d="M184.481 210.296H179.163V210.449H184.481V210.296Z" fill="#EBEBEB"/>
<path d="M254.451 204.536H216.85V204.689H254.451V204.536Z" fill="#EBEBEB"/>
<path d="M137.786 208.147H130.019V208.3H137.786V208.147Z" fill="#EBEBEB"/>
<path d="M124.573 208.147H102.033V208.3H124.573V208.147Z" fill="#EBEBEB"/>
<path d="M47.6686 205.565H32.1055V205.718H47.6686V205.565Z" fill="#EBEBEB"/>
<path d="M97.1734 205.565H51.3407V205.718H97.1734V205.565Z" fill="#EBEBEB"/>
<path d="M145.044 173.074H26.8729C25.9472 173.072 25.0599 172.703 24.4059 172.048C23.7519 171.393 23.3845 170.505 23.3845 169.579V3.46392C23.3926 2.54349 23.7635 1.6634 24.4166 1.01483C25.0698 0.366256 25.9525 0.00157675 26.8729 0H145.044C145.971 0 146.86 0.368172 147.515 1.02352C148.17 1.67887 148.539 2.56772 148.539 3.49452V169.579C148.539 170.506 148.17 171.395 147.515 172.05C146.86 172.705 145.971 173.074 145.044 173.074ZM26.8729 0.1224C25.9878 0.124022 25.1394 0.476788 24.5141 1.10327C23.8887 1.72975 23.5375 2.57875 23.5375 3.46392V169.579C23.5375 170.464 23.8887 171.313 24.5141 171.94C25.1394 172.566 25.9878 172.919 26.8729 172.921H145.044C145.93 172.919 146.779 172.566 147.405 171.94C148.031 171.314 148.384 170.465 148.386 169.579V3.46392C148.384 2.57819 148.031 1.7292 147.405 1.1029C146.779 0.476589 145.93 0.124018 145.044 0.1224H26.8729Z" fill="#EBEBEB"/>
<path d="M277.426 173.074H159.248C158.322 173.072 157.434 172.703 156.779 172.048C156.124 171.393 155.756 170.505 155.754 169.579V3.46392C155.764 2.54293 156.136 1.66285 156.79 1.01445C157.444 0.366042 158.327 0.00155955 159.248 0H277.426C278.345 0.00318515 279.226 0.368576 279.878 1.01698C280.53 1.66538 280.9 2.54454 280.908 3.46392V169.579C280.908 170.504 280.541 171.391 279.889 172.046C279.236 172.701 278.35 173.07 277.426 173.074ZM159.248 0.1224C158.363 0.124018 157.514 0.476589 156.887 1.1029C156.261 1.7292 155.909 2.57819 155.907 3.46392V169.579C155.909 170.465 156.261 171.314 156.887 171.94C157.514 172.566 158.363 172.919 159.248 172.921H277.426C278.311 172.919 279.16 172.566 279.787 171.94C280.413 171.314 280.766 170.465 280.767 169.579V3.46392C280.766 2.57819 280.413 1.7292 279.787 1.1029C279.16 0.476589 278.311 0.124018 277.426 0.1224H159.248Z" fill="#EBEBEB"/>
<path d="M116.757 119.04L265.498 119.04V10.3917L116.757 10.3917V119.04Z" fill="#E6E6E6"/>
<path d="M110.184 119.04L263.974 119.04V10.3917L110.184 10.3917V119.04Z" fill="#F0F0F0"/>
<path d="M254.763 109.836V19.5967L119.383 19.5967V109.836L254.763 109.836Z" fill="#FAFAFA"/>
<path d="M221.856 109.83L191.036 19.5967H161.605L192.425 109.83H221.856Z" fill="white"/>
<path d="M186.103 109.83L155.283 19.5967H143.814L174.634 109.83H186.103Z" fill="white"/>
<path d="M120.558 109.836V19.5967H119.389V109.836H120.558Z" fill="#E6E6E6"/>
<path d="M39.5169 89.4863H92.0387L92.0387 15.0243H39.5169L39.5169 89.4863Z" fill="#E0E0E0"/>
<path d="M35.8021 89.4863H89.9396L89.9396 15.0243H35.8021L35.8021 89.4863Z" fill="#F5F5F5"/>
<path d="M84.5968 83.6116V20.8877L41.1448 20.8877L41.1448 83.6116H84.5968Z" fill="white"/>
<path d="M59.9332 141.617C63.8316 131.996 73.1034 128.416 76.3103 122.339C80.5025 114.383 80.478 102.443 76.9223 98.1405C73.8133 94.395 63.5317 119.707 62.375 122.535C59.2017 130.166 57.2162 138.238 56.4876 146.47C56.5733 140.528 56.6528 135.069 56.7202 130.858C56.9405 117.125 57.2098 112.706 57.3322 111.347C57.7606 110.68 58.2685 109.909 58.5562 109.511C61.047 106.005 66.5672 101.825 69.3274 96.7267C73.3543 89.2787 72.7056 80.368 69.8782 77.0509C66.9222 73.5809 61.7018 81.7817 58.9295 89.9029C56.1571 98.0242 57.3383 105.815 56.561 112.547C56.4019 113.869 56.2306 118.893 56.0776 125.87C55.233 118.367 53.5561 113.343 50.4533 108.655C46.6344 102.896 43.3357 95.8822 40.19 96.7879C37.0444 97.6937 38.7335 106.978 41.2243 113.489C43.452 119.291 54.3762 125.081 55.9858 129.744C55.796 139.193 55.6247 151.164 55.5084 162.321C54.6455 156.562 55.2391 156.078 51.7018 147.26C49.6026 142.021 41.004 135.558 39.9636 139.157C38.9232 142.755 40.496 149.561 43.7458 154.334C46.3712 158.178 52.1914 158.172 53.5378 160.558C53.8499 161.115 54.8903 163.251 55.4839 164.475C55.3432 178.086 55.282 190.106 55.3493 194.2L55.9123 194.243C55.9123 193.184 55.9552 186.287 56.0653 177.107C57.479 172.211 66.9956 169.389 69.9332 164.316C72.9932 159.01 75.2209 152.817 73.899 148.673C72.7974 145.215 64.107 149.897 60.6125 155.644C58.2685 159.463 56.8364 163.533 56.1694 169.004C56.2489 162.762 56.3407 156.054 56.4264 149.726C57.1424 148.135 58.752 144.499 59.9332 141.617Z" fill="#E6E6E6"/>
<path d="M65.5207 200.368H45.5205C44.992 200.368 44.4798 200.185 44.0706 199.85C43.6614 199.516 43.3802 199.05 43.2745 198.532L41.8546 191.556H69.1927L67.7728 198.551C67.6611 199.065 67.3768 199.526 66.9672 199.857C66.5575 200.187 66.0471 200.368 65.5207 200.368Z" fill="#F0F0F0"/>
<path d="M69.768 194.242H41.2794C40.9494 194.241 40.6312 194.119 40.3853 193.899C40.1393 193.679 39.9827 193.376 39.9452 193.048L39.3332 187.877C39.3126 187.689 39.3317 187.499 39.3893 187.32C39.4469 187.14 39.5417 186.974 39.6676 186.833C39.7934 186.692 39.9474 186.58 40.1197 186.502C40.2919 186.425 40.4785 186.384 40.6674 186.384H70.3127C70.5018 186.383 70.6889 186.423 70.8616 186.5C71.0343 186.577 71.1888 186.69 71.3148 186.831C71.4408 186.972 71.5355 187.138 71.5928 187.319C71.65 187.499 71.6684 187.689 71.6468 187.877L71.0348 193.048C70.9991 193.365 70.8521 193.659 70.6202 193.877C70.3882 194.096 70.0862 194.225 69.768 194.242Z" fill="#F0F0F0"/>
<path d="M248.246 195.907H254.359V130.123H248.246V195.907Z" fill="#F0F0F0"/>
<path d="M123.661 200.29L252.016 200.29V195.908L123.661 195.908V200.29Z" fill="#F0F0F0"/>
<path d="M248.252 130.124H121.317V195.908H248.252V130.124Z" fill="#F5F5F5"/>
<path d="M249.69 130.124H256.006V125.975H249.69V130.124Z" fill="#E0E0E0"/>
<path d="M249.69 125.974H119.67V130.123H249.69V125.974Z" fill="#EBEBEB"/>
<path d="M239.139 158.508H130.423C129.125 158.508 127.88 157.992 126.961 157.074C126.043 156.155 125.527 154.91 125.527 153.612V139.536C125.527 138.237 126.043 136.992 126.961 136.074C127.88 135.155 129.125 134.64 130.423 134.64H239.139C240.438 134.64 241.683 135.155 242.601 136.074C243.519 136.992 244.035 138.237 244.035 139.536V153.612C244.035 154.91 243.519 156.155 242.601 157.074C241.683 157.992 240.438 158.508 239.139 158.508ZM130.423 135.864C129.449 135.864 128.515 136.251 127.827 136.939C127.138 137.628 126.751 138.562 126.751 139.536V153.612C126.751 154.586 127.138 155.52 127.827 156.208C128.515 156.897 129.449 157.284 130.423 157.284H239.139C240.113 157.284 241.047 156.897 241.736 156.208C242.424 155.52 242.811 154.586 242.811 153.612V139.536C242.811 138.562 242.424 137.628 241.736 136.939C241.047 136.251 240.113 135.864 239.139 135.864H130.423Z" fill="white"/>
<path d="M239.139 188H130.423C129.125 188 127.88 187.484 126.961 186.566C126.043 185.648 125.527 184.402 125.527 183.104V169.028C125.527 167.729 126.043 166.484 126.961 165.566C127.88 164.648 129.125 164.132 130.423 164.132H239.139C240.438 164.132 241.683 164.648 242.601 165.566C243.519 166.484 244.035 167.729 244.035 169.028V183.104C244.035 184.402 243.519 185.648 242.601 186.566C241.683 187.484 240.438 188 239.139 188ZM130.423 165.307C129.449 165.307 128.515 165.694 127.827 166.382C127.138 167.071 126.751 168.005 126.751 168.979V183.055C126.751 184.029 127.138 184.963 127.827 185.651C128.515 186.34 129.449 186.727 130.423 186.727H239.139C240.113 186.727 241.047 186.34 241.736 185.651C242.424 184.963 242.811 184.029 242.811 183.055V168.979C242.811 168.005 242.424 167.071 241.736 166.382C241.047 165.694 240.113 165.307 239.139 165.307H130.423Z" fill="white"/>
<path d="M214.433 148.716H155.13C154.709 148.716 154.305 148.549 154.007 148.252C153.709 147.955 153.54 147.552 153.539 147.131V145.968C153.54 145.547 153.709 145.144 154.007 144.847C154.305 144.55 154.709 144.383 155.13 144.383H214.433C214.854 144.383 215.257 144.55 215.556 144.847C215.854 145.144 216.022 145.547 216.024 145.968V147.131C216.022 147.552 215.854 147.955 215.556 148.252C215.257 148.549 214.854 148.716 214.433 148.716ZM155.13 145.656C155.034 145.657 154.942 145.696 154.874 145.763C154.806 145.83 154.766 145.921 154.763 146.017V147.18C154.766 147.275 154.806 147.366 154.874 147.434C154.942 147.501 155.034 147.539 155.13 147.541H214.433C214.529 147.541 214.621 147.503 214.69 147.435C214.759 147.368 214.798 147.276 214.8 147.18V146.017C214.798 145.921 214.759 145.829 214.69 145.761C214.621 145.694 214.529 145.656 214.433 145.656H155.13Z" fill="white"/>
<path d="M214.433 178.209H155.13C154.709 178.209 154.305 178.042 154.007 177.745C153.709 177.448 153.54 177.045 153.539 176.624V175.461C153.54 175.04 153.709 174.637 154.007 174.34C154.305 174.043 154.709 173.876 155.13 173.876H214.433C214.854 173.876 215.257 174.043 215.556 174.34C215.854 174.637 216.022 175.04 216.024 175.461V176.624C216.022 177.045 215.854 177.448 215.556 177.745C215.257 178.042 214.854 178.209 214.433 178.209ZM155.13 175.1C155.034 175.101 154.942 175.14 154.874 175.207C154.806 175.274 154.766 175.365 154.763 175.461V176.624C154.766 176.72 154.806 176.811 154.874 176.878C154.942 176.945 155.034 176.983 155.13 176.985H214.433C214.529 176.985 214.621 176.947 214.69 176.88C214.759 176.812 214.798 176.72 214.8 176.624V175.461C214.798 175.365 214.759 175.273 214.69 175.205C214.621 175.138 214.529 175.1 214.433 175.1H155.13Z" fill="white"/>
<path d="M149.94 228.006C215.474 228.006 268.601 224.904 268.601 221.078C268.601 217.252 215.474 214.15 149.94 214.15C84.4055 214.15 31.2793 217.252 31.2793 221.078C31.2793 224.904 84.4055 228.006 149.94 228.006Z" fill="#F5F5F5"/>
<path d="M229.372 69.0051L229.139 72.6084L229.749 72.6479L229.982 69.0446L229.372 69.0051Z" fill="#818181"/>
<path d="M230.3 54.3698L229.537 66.2119L230.147 66.2513L230.911 54.4092L230.3 54.3698Z" fill="#818181"/>
<path d="M223.037 37.1732H151.097C149.249 37.2056 147.481 37.9251 146.135 39.1913C144.79 40.4575 143.964 42.1796 143.82 44.0215L134.524 187.535C134.456 188.415 134.572 189.299 134.864 190.132C135.156 190.965 135.618 191.727 136.22 192.372C136.823 193.016 137.553 193.529 138.364 193.876C139.175 194.223 140.049 194.398 140.931 194.39H212.86C214.71 194.359 216.483 193.64 217.832 192.372C219.181 191.105 220.009 189.381 220.155 187.535L229.445 44.0215C229.513 43.1421 229.397 42.2581 229.105 41.4259C228.813 40.5936 228.351 39.8312 227.748 39.1871C227.146 38.5431 226.416 38.0314 225.605 37.6847C224.794 37.338 223.919 37.1638 223.037 37.1732Z" fill="#818181"/>
<path opacity="0.7" d="M220.755 37.1732H151.097C149.249 37.2056 147.481 37.9251 146.135 39.1913C144.79 40.4575 143.964 42.1796 143.82 44.0215L134.524 187.535C134.456 188.415 134.572 189.299 134.864 190.132C135.156 190.965 135.618 191.727 136.22 192.372C136.823 193.016 137.553 193.529 138.364 193.876C139.175 194.223 140.049 194.398 140.931 194.39H210.577C212.428 194.359 214.2 193.64 215.549 192.372C216.898 191.105 217.726 189.381 217.872 187.535L227.162 44.0215C227.23 43.1421 227.114 42.2581 226.822 41.4259C226.53 40.5936 226.068 39.8312 225.466 39.1871C224.863 38.5431 224.133 38.0314 223.322 37.6847C222.511 37.338 221.637 37.1638 220.755 37.1732Z" fill="white"/>
<path d="M214.879 183.784H138.257C137.97 183.785 137.687 183.726 137.424 183.613C137.16 183.499 136.923 183.333 136.727 183.124C136.531 182.915 136.38 182.668 136.283 182.399C136.186 182.129 136.145 181.842 136.164 181.556L144.573 51.6899C144.607 51.1595 144.842 50.6619 145.229 50.2982C145.617 49.9345 146.128 49.7319 146.66 49.7314H223.288C223.575 49.7317 223.859 49.7907 224.122 49.9049C224.385 50.0191 224.622 50.186 224.818 50.3953C225.014 50.6047 225.165 50.852 225.262 51.122C225.359 51.392 225.4 51.679 225.381 51.9653L216.972 181.826C216.938 182.357 216.703 182.855 216.314 183.219C215.925 183.583 215.412 183.785 214.879 183.784Z" fill="white"/>
<path d="M197.854 45.4844H170.001C169.858 45.4856 169.716 45.4571 169.584 45.4006C169.453 45.3441 169.334 45.2609 169.236 45.1561C169.139 45.0514 169.064 44.9275 169.016 44.7923C168.969 44.657 168.95 44.5134 168.961 44.3705C168.989 44.0737 169.125 43.7974 169.342 43.5934C169.56 43.3895 169.844 43.2719 170.142 43.2628H197.994C198.137 43.2607 198.279 43.2884 198.411 43.3442C198.543 43.4 198.661 43.4827 198.759 43.587C198.857 43.6912 198.932 43.8147 198.98 43.9497C199.027 44.0846 199.046 44.2279 199.035 44.3705C199.008 44.6684 198.873 44.9462 198.655 45.1515C198.438 45.3567 198.153 45.4751 197.854 45.4844Z" fill="white"/>
<path d="M176.115 189.236C176.071 189.97 175.75 190.659 175.217 191.166C174.684 191.672 173.98 191.958 173.245 191.966C172.892 191.969 172.542 191.899 172.217 191.762C171.893 191.624 171.6 191.42 171.357 191.164C171.114 190.908 170.926 190.605 170.806 190.273C170.685 189.941 170.634 189.588 170.656 189.236C170.703 188.504 171.024 187.816 171.557 187.311C172.089 186.806 172.793 186.521 173.527 186.513C173.879 186.509 174.229 186.578 174.554 186.715C174.879 186.852 175.172 187.055 175.415 187.31C175.658 187.566 175.845 187.869 175.966 188.2C176.086 188.532 176.137 188.884 176.115 189.236Z" fill="white"/>
<path opacity="0.2" d="M206.532 85.6807H141.103L136.941 149.879H206.532C208.348 149.876 210.088 149.154 211.373 147.87C212.657 146.587 213.381 144.847 213.386 143.031V92.5534C213.388 90.7333 212.667 88.9871 211.381 87.6983C210.096 86.4096 208.352 85.6839 206.532 85.6807Z" fill="#818181"/>
<path d="M200.436 79.9951H120.252C116.466 79.9951 113.398 83.0639 113.398 86.8495V137.346C113.398 141.131 116.466 144.2 120.252 144.2H200.436C204.222 144.2 207.291 141.131 207.291 137.346V86.8495C207.291 83.0639 204.222 79.9951 200.436 79.9951Z" fill="#818181"/>
<path d="M111.207 79.2546C111.046 79.2539 110.892 79.1902 110.778 79.0771L109.677 77.9816C109.561 77.8664 109.497 77.7101 109.497 77.5471C109.497 77.3842 109.561 77.2278 109.677 77.1126C109.792 76.9974 109.948 76.9326 110.111 76.9326C110.274 76.9326 110.43 76.9974 110.546 77.1126L111.641 78.2142C111.755 78.3289 111.819 78.484 111.819 78.6457C111.819 78.8073 111.755 78.9625 111.641 79.0771C111.584 79.1339 111.516 79.1787 111.442 79.2092C111.367 79.2396 111.287 79.2551 111.207 79.2546Z" fill="#818181"/>
<path d="M109.548 83.098H108C107.837 83.098 107.682 83.0335 107.567 82.9188C107.452 82.804 107.388 82.6483 107.388 82.486C107.388 82.3237 107.452 82.168 107.567 82.0533C107.682 81.9385 107.837 81.874 108 81.874H109.548C109.71 81.874 109.866 81.9385 109.981 82.0533C110.096 82.168 110.16 82.3237 110.16 82.486C110.16 82.6483 110.096 82.804 109.981 82.9188C109.866 83.0335 109.71 83.098 109.548 83.098Z" fill="#818181"/>
<path d="M115.105 77.6027C114.95 77.603 114.8 77.5445 114.687 77.4388C114.573 77.3331 114.504 77.1883 114.493 77.0335L114.383 75.4851C114.377 75.4047 114.387 75.324 114.413 75.2475C114.438 75.171 114.478 75.1003 114.531 75.0394C114.584 74.9786 114.649 74.9288 114.721 74.8929C114.793 74.857 114.872 74.8357 114.952 74.8303C115.113 74.8202 115.272 74.8744 115.394 74.9811C115.515 75.0877 115.59 75.2381 115.601 75.3994L115.717 76.9478C115.723 77.0282 115.713 77.109 115.687 77.1855C115.662 77.262 115.621 77.3327 115.569 77.3935C115.516 77.4544 115.451 77.5042 115.379 77.5401C115.307 77.5759 115.228 77.5972 115.148 77.6027H115.105Z" fill="#818181"/>
<path d="M167.192 137.598L191.813 162.212V137.598H167.192Z" fill="#818181"/>
<path d="M173.943 126.813L172.719 121.617C172.41 120.251 172.41 118.834 172.719 117.468L174.42 110.069C175.116 106.913 174.739 103.616 173.349 100.699C171.959 97.7826 169.635 95.4133 166.746 93.9669C166.8 93.8308 166.847 93.6919 166.886 93.5508C166.987 93.1019 166.998 92.6377 166.919 92.1845C166.84 91.7314 166.673 91.2983 166.426 90.9098C166.18 90.5214 165.859 90.1853 165.483 89.9207C165.107 89.6561 164.682 89.4682 164.233 89.3678C163.785 89.2673 163.32 89.2562 162.867 89.3352C162.414 89.4142 161.981 89.5816 161.592 89.828C161.204 90.0743 160.868 90.3948 160.603 90.771C160.339 91.1473 160.151 91.5719 160.05 92.0208C160.02 92.1639 160.002 92.3092 159.995 92.4553C156.765 92.5311 153.653 93.6822 151.151 95.7263C148.649 97.7704 146.901 100.591 146.182 103.741L144.524 111.146C144.219 112.509 143.613 113.787 142.749 114.885L139.45 119.077C139.128 119.489 138.914 119.975 138.83 120.491C138.746 121.006 138.794 121.535 138.969 122.028C139.145 122.52 139.442 122.96 139.833 123.307C140.224 123.653 140.697 123.895 141.207 124.01L170.277 130.522C170.785 130.632 171.313 130.611 171.811 130.463C172.309 130.315 172.762 130.043 173.128 129.673C173.493 129.304 173.76 128.848 173.902 128.348C174.044 127.848 174.058 127.32 173.943 126.813Z" fill="white"/>
<path d="M151.99 128.417C151.769 128.368 151.539 128.375 151.321 128.436C151.103 128.497 150.904 128.611 150.74 128.768C150.577 128.925 150.455 129.119 150.385 129.335C150.314 129.55 150.298 129.779 150.338 130.002C150.505 130.986 150.961 131.897 151.647 132.62C152.334 133.344 153.22 133.847 154.194 134.064C155.167 134.282 156.183 134.206 157.113 133.844C158.043 133.482 158.843 132.852 159.414 132.034C159.544 131.85 159.627 131.636 159.655 131.412C159.683 131.188 159.656 130.96 159.576 130.749C159.495 130.538 159.364 130.35 159.194 130.202C159.024 130.053 158.82 129.949 158.6 129.898L151.99 128.417Z" fill="white"/>
<path d="M129.665 118.116C129.513 118.118 129.363 118.081 129.23 118.009C129.096 117.937 128.983 117.833 128.9 117.706C126.009 113.376 124.957 108.074 125.975 102.968C126.993 97.8621 129.998 93.3694 134.328 90.4785C134.531 90.3438 134.779 90.2952 135.018 90.3434C135.256 90.3916 135.466 90.5326 135.601 90.7355C135.736 90.9384 135.784 91.1865 135.736 91.4252C135.688 91.664 135.547 91.8738 135.344 92.0085C131.424 94.6341 128.706 98.7083 127.788 103.336C126.87 107.964 127.827 112.767 130.448 116.69C130.583 116.893 130.633 117.14 130.586 117.379C130.539 117.618 130.399 117.828 130.197 117.963C130.039 118.067 129.853 118.121 129.665 118.116Z" fill="white"/>
<path d="M133.551 115.51C133.4 115.509 133.252 115.471 133.12 115.399C132.988 115.328 132.875 115.225 132.792 115.1C130.592 111.801 129.791 107.764 130.566 103.875C131.34 99.9857 133.627 96.5633 136.923 94.3591C137.023 94.292 137.136 94.2453 137.254 94.2218C137.373 94.1982 137.495 94.1982 137.613 94.2218C137.732 94.2454 137.845 94.2921 137.945 94.3592C138.045 94.4263 138.132 94.5126 138.199 94.6131C138.266 94.7135 138.313 94.8262 138.336 94.9447C138.36 95.0632 138.36 95.1852 138.336 95.3037C138.312 95.4222 138.266 95.5348 138.199 95.6353C138.131 95.7357 138.045 95.822 137.945 95.8891C135.052 97.8198 133.044 100.821 132.363 104.232C131.683 107.643 132.385 111.184 134.316 114.078C134.451 114.28 134.501 114.527 134.454 114.766C134.407 115.005 134.267 115.215 134.065 115.351C133.912 115.453 133.734 115.508 133.551 115.51Z" fill="white"/>
<path d="M137.443 112.91C137.293 112.911 137.145 112.874 137.013 112.804C136.88 112.733 136.767 112.631 136.684 112.506C135.934 111.383 135.413 110.124 135.151 108.799C134.888 107.475 134.89 106.112 135.154 104.788C135.419 103.464 135.943 102.205 136.695 101.084C137.446 99.9624 138.412 99.0003 139.536 98.2524C139.738 98.1269 139.981 98.0847 140.214 98.1348C140.446 98.1849 140.65 98.3233 140.783 98.5209C140.915 98.7185 140.966 98.9598 140.924 99.194C140.882 99.4282 140.751 99.637 140.558 99.7763C139.636 100.392 138.844 101.183 138.228 102.104C137.612 103.026 137.183 104.06 136.967 105.147C136.75 106.234 136.75 107.353 136.966 108.441C137.182 109.528 137.611 110.562 138.226 111.484C138.36 111.686 138.409 111.934 138.362 112.172C138.315 112.41 138.176 112.62 137.975 112.757C137.818 112.861 137.632 112.914 137.443 112.91Z" fill="white"/>
<path d="M182.59 131.025C182.385 131.024 182.186 130.955 182.025 130.828C181.863 130.701 181.749 130.523 181.701 130.324C181.652 130.125 181.672 129.915 181.756 129.728C181.841 129.541 181.986 129.388 182.168 129.293C186.361 127.126 189.522 123.383 190.957 118.887C192.391 114.391 191.982 109.509 189.818 105.314C189.752 105.207 189.709 105.087 189.692 104.962C189.675 104.837 189.683 104.71 189.717 104.588C189.752 104.467 189.81 104.353 189.89 104.256C189.97 104.158 190.069 104.078 190.181 104.02C190.293 103.962 190.416 103.928 190.542 103.92C190.668 103.912 190.794 103.93 190.913 103.972C191.032 104.015 191.14 104.082 191.232 104.169C191.324 104.255 191.396 104.36 191.446 104.476C192.628 106.768 193.346 109.27 193.561 111.84C193.776 114.41 193.482 116.997 192.696 119.453C191.911 121.91 190.649 124.187 188.984 126.156C187.318 128.124 185.28 129.746 182.988 130.927C182.864 130.987 182.728 131.021 182.59 131.025Z" fill="white"/>
<path d="M180.442 126.869C180.237 126.868 180.038 126.799 179.876 126.672C179.715 126.545 179.601 126.368 179.552 126.168C179.504 125.969 179.523 125.759 179.608 125.572C179.693 125.385 179.838 125.232 180.02 125.137C181.551 124.347 182.912 123.263 184.024 121.948C185.137 120.632 185.979 119.109 186.502 117.468C187.026 115.826 187.22 114.098 187.075 112.381C186.93 110.664 186.448 108.992 185.656 107.462C185.544 107.245 185.523 106.993 185.597 106.761C185.671 106.528 185.834 106.335 186.051 106.223C186.268 106.111 186.52 106.089 186.753 106.163C186.985 106.238 187.178 106.401 187.29 106.618C188.192 108.362 188.742 110.267 188.907 112.224C189.072 114.181 188.85 116.152 188.253 118.023C187.656 119.894 186.697 121.629 185.429 123.129C184.161 124.629 182.61 125.864 180.864 126.765C180.735 126.834 180.589 126.87 180.442 126.869Z" fill="white"/>
<path d="M178.294 122.713C178.09 122.71 177.892 122.639 177.732 122.511C177.572 122.384 177.459 122.206 177.411 122.008C177.363 121.809 177.382 121.6 177.465 121.413C177.549 121.226 177.692 121.072 177.872 120.975C178.857 120.468 179.733 119.772 180.449 118.926C181.164 118.08 181.706 117.101 182.044 116.046C182.381 114.99 182.506 113.878 182.413 112.774C182.32 111.67 182.01 110.595 181.501 109.611C181.389 109.394 181.368 109.142 181.442 108.909C181.516 108.677 181.679 108.483 181.896 108.371C182.112 108.259 182.365 108.238 182.597 108.312C182.83 108.386 183.023 108.549 183.135 108.766C184.381 111.19 184.613 114.009 183.783 116.604C182.952 119.2 181.126 121.359 178.704 122.609C178.577 122.675 178.437 122.711 178.294 122.713Z" fill="white"/>
<path d="M124.456 43.3605H119.781C119.659 43.3636 119.543 43.4095 119.452 43.4901C119.362 43.5708 119.302 43.6809 119.285 43.8011L118.306 53.128C118.299 53.1842 118.304 53.2412 118.321 53.2953C118.338 53.3494 118.366 53.3992 118.403 53.4415C118.441 53.4838 118.487 53.5176 118.539 53.5405C118.591 53.5635 118.647 53.5752 118.704 53.5747H123.379C123.502 53.5714 123.619 53.5246 123.709 53.4427C123.8 53.3608 123.859 53.2492 123.875 53.128L124.854 43.8011C124.861 43.7452 124.856 43.6884 124.839 43.6346C124.822 43.5809 124.794 43.5314 124.756 43.4896C124.719 43.4477 124.672 43.4145 124.62 43.3923C124.569 43.37 124.513 43.3591 124.456 43.3605Z" fill="#818181"/>
<path opacity="0.4" d="M124.034 43.3606H119.781C119.659 43.3637 119.543 43.4096 119.452 43.4903C119.362 43.5709 119.302 43.6811 119.285 43.8012L118.306 53.1281C118.299 53.1843 118.304 53.2413 118.321 53.2954C118.338 53.3495 118.366 53.3993 118.403 53.4416C118.441 53.4839 118.487 53.5177 118.539 53.5407C118.591 53.5636 118.647 53.5753 118.704 53.5749H122.988C123.109 53.5713 123.225 53.5243 123.315 53.4423C123.405 53.3604 123.463 53.2489 123.477 53.1281L124.456 43.8012C124.465 43.7429 124.46 43.6834 124.443 43.6273C124.425 43.5711 124.394 43.5197 124.353 43.4772C124.313 43.4346 124.263 43.402 124.207 43.3818C124.152 43.3616 124.093 43.3543 124.034 43.3606Z" fill="white"/>
<path d="M101.023 215.822C101.635 215.822 102.247 215.731 102.461 215.449C102.513 215.373 102.541 215.284 102.541 215.192C102.541 215.1 102.513 215.011 102.461 214.935C102.372 214.798 102.234 214.699 102.075 214.66C101.243 214.433 99.554 215.425 99.4806 215.467C99.4615 215.479 99.4466 215.497 99.4378 215.518C99.4291 215.539 99.4269 215.562 99.4316 215.584C99.4362 215.608 99.4479 215.63 99.4654 215.648C99.4829 215.665 99.5053 215.677 99.5296 215.682C100.022 215.77 100.522 215.817 101.023 215.822ZM101.769 214.862C101.845 214.852 101.921 214.852 101.996 214.862C102.093 214.885 102.178 214.944 102.235 215.027C102.32 215.174 102.296 215.247 102.235 215.284C102.02 215.608 100.766 215.614 99.8417 215.486C100.435 215.149 101.091 214.937 101.769 214.862Z" fill="#818181"/>
<path d="M99.5174 215.681H99.5663C100.178 215.412 101.292 214.341 101.176 213.778C101.176 213.649 101.047 213.484 100.723 213.453C100.608 213.441 100.492 213.452 100.382 213.485C100.271 213.519 100.169 213.575 100.08 213.649C99.4684 214.169 99.4011 215.485 99.395 215.559C99.3942 215.58 99.3988 215.602 99.4085 215.621C99.4181 215.64 99.4324 215.657 99.4501 215.669C99.4709 215.679 99.4942 215.683 99.5174 215.681ZM100.643 213.674H100.711C100.925 213.674 100.943 213.778 100.943 213.802C101.017 214.139 100.246 214.983 99.652 215.351C99.6895 214.789 99.9037 214.253 100.264 213.821C100.37 213.73 100.504 213.678 100.643 213.674Z" fill="#818181"/>
<path d="M99.0154 204.091H94.0582V215.566H99.0154V204.091Z" fill="#D9D9D9"/>
<path d="M58.1094 210.094L63.0605 210.633L66.2857 199.495L61.3346 198.956L58.1094 210.094Z" fill="#D9D9D9"/>
<path d="M65.3617 211.753C65.9737 211.912 66.5857 211.979 66.8611 211.753C66.9284 211.69 66.9741 211.608 66.9917 211.518C67.0093 211.427 66.9978 211.334 66.959 211.251C66.9338 211.174 66.8938 211.104 66.8413 211.043C66.7888 210.982 66.7248 210.932 66.653 210.896C65.888 210.474 63.9908 211.006 63.9112 211.024C63.8879 211.031 63.8671 211.044 63.8518 211.063C63.8364 211.081 63.8273 211.104 63.8256 211.128C63.8255 211.153 63.8324 211.177 63.8454 211.197C63.8584 211.218 63.877 211.234 63.899 211.245C64.3712 211.455 64.8606 211.625 65.3617 211.753ZM66.3286 211.018C66.4029 211.036 66.4748 211.063 66.5428 211.098C66.6335 211.141 66.7038 211.218 66.7387 211.312C66.7876 211.477 66.7387 211.538 66.7387 211.575C66.4449 211.826 65.2148 211.526 64.3396 211.171C64.9867 210.993 65.6624 210.943 66.3286 211.024V211.018Z" fill="#818181"/>
<path d="M63.9234 211.258H63.9724C64.5844 211.141 65.992 210.395 66.0165 209.832C66.0165 209.697 65.9675 209.513 65.6554 209.403C65.5454 209.364 65.4287 209.347 65.312 209.353C65.1953 209.359 65.0811 209.389 64.9761 209.44C64.2539 209.789 63.85 211.049 63.8316 211.098C63.8214 211.116 63.816 211.136 63.816 211.157C63.816 211.177 63.8214 211.197 63.8316 211.215C63.842 211.229 63.8559 211.241 63.872 211.248C63.888 211.256 63.9057 211.259 63.9234 211.258ZM65.5146 209.611H65.5881C65.79 209.685 65.7839 209.77 65.7839 209.795C65.7839 210.138 64.8047 210.756 64.1315 210.958C64.301 210.428 64.6356 209.967 65.0862 209.642C65.2206 209.58 65.3728 209.569 65.5146 209.611Z" fill="#818181"/>
<path d="M63.3236 210.174L57.9074 208.619C57.8144 208.591 57.7144 208.597 57.625 208.635C57.5356 208.673 57.4623 208.741 57.4178 208.827L55.4227 212.787C55.3761 212.887 55.3521 212.996 55.3525 213.107C55.3529 213.217 55.3777 213.327 55.425 213.426C55.4723 213.526 55.5411 213.615 55.6263 213.685C55.7116 213.755 55.8113 213.806 55.9184 213.833C57.8156 214.341 58.7642 214.5 61.1449 215.18C62.6076 215.602 65.588 216.618 67.6137 217.199C69.6395 217.781 70.3861 215.877 69.6027 215.461C66.0899 213.595 64.9638 212.089 64.0335 210.694C63.8667 210.441 63.6148 210.257 63.3236 210.174Z" fill="#263238"/>
<path d="M98.9605 214.99H93.5504C93.4531 214.989 93.3587 215.023 93.2844 215.086C93.2102 215.149 93.1612 215.237 93.1465 215.333L92.357 219.709C92.3393 219.818 92.3455 219.93 92.3752 220.036C92.4048 220.143 92.4572 220.242 92.5288 220.326C92.6003 220.41 92.6893 220.478 92.7896 220.525C92.8899 220.572 92.9992 220.596 93.1098 220.596C95.0621 220.559 97.8773 220.443 100.331 220.443C103.202 220.443 104.768 220.602 108.134 220.602C110.166 220.602 110.644 218.546 109.781 218.356C105.87 217.512 103.612 217.42 100.172 215.351C99.8069 215.127 99.3891 215.002 98.9605 214.99Z" fill="#263238"/>
<path opacity="0.2" d="M99.0154 204.091H94.0582V210.009H99.0154V204.091Z" fill="black"/>
<path opacity="0.2" d="M61.3347 198.962L66.2858 199.494L64.4926 205.676L59.67 204.702L61.3347 198.962Z" fill="black"/>
<path d="M90.8636 89.9648C90.8636 89.9648 88.128 127.383 85.68 141.569C82.9811 157.107 67.2772 204.684 67.2772 204.684L58.2808 203.038C58.2808 203.038 69.6211 158.362 70.8757 142.976C72.2405 126.281 73.8806 91.8682 73.8806 91.8682L90.8636 89.9648Z" fill="#818181"/>
<path opacity="0.3" d="M86.2554 105.51C86.745 103.454 87.8711 106.042 89.1807 110.528C88.1893 121.63 86.898 134.488 85.6617 141.575C85.3863 143.16 84.9702 145.082 84.4377 147.26C84.909 131.422 84.9273 111.073 86.2554 105.51Z" fill="black"/>
<path d="M100.209 88.9492C100.209 88.9492 103.801 126.563 103.924 141.673C104.052 157.395 100.815 208.864 100.815 208.864H92.412C92.412 208.864 89.8906 158.313 88.8441 142.873C87.6996 126.043 82.8832 90.8525 82.8832 90.8525L100.209 88.9492Z" fill="#818181"/>
<path d="M69.1561 201.655C69.1928 201.655 67.7424 204.917 67.7424 204.917L57.6199 203.081L58.2319 200.052L69.1561 201.655Z" fill="#263238"/>
<path d="M102.284 205.517C102.32 205.517 101.959 209.005 101.959 209.005H91.751L91.3348 205.896L102.284 205.517Z" fill="#263238"/>
<path d="M74.1254 55.4226C73.4522 56.7262 72.7117 58.0971 72.0385 59.4496L69.9822 63.5255C69.3151 64.8842 68.6603 66.2489 68.0299 67.6137C67.3996 68.9784 66.8059 70.3371 66.298 71.6957L66.249 69.5537C66.6067 70.6536 67.0361 71.729 67.5342 72.7728C67.7729 73.3114 68.0789 73.8255 68.342 74.3579C68.6052 74.8904 68.954 75.3983 69.2662 75.9002C69.9155 76.9375 70.6182 77.9405 71.3714 78.9051C71.7509 79.3886 72.1303 79.8843 72.5342 80.3494C72.9382 80.8145 73.3788 81.298 73.7582 81.6958L73.8806 81.8304C74.1626 82.14 74.3251 82.5399 74.339 82.9584C74.353 83.3769 74.2175 83.7868 73.9568 84.1145C73.6961 84.4422 73.3273 84.6663 72.9163 84.7469C72.5054 84.8274 72.0792 84.7589 71.7142 84.5538C71.0816 84.1975 70.4687 83.8073 69.8782 83.3849C69.2662 82.981 68.7276 82.5587 68.1768 82.112C67.0742 81.2075 66.0392 80.2237 65.0801 79.1682C64.101 78.0957 63.2107 76.9455 62.4179 75.7288C61.6033 74.4893 60.8949 73.1831 60.3004 71.8242C60.0385 71.2475 59.9929 70.5958 60.1718 69.9882L60.2575 69.7006C60.7226 68.1033 61.2428 66.5549 61.8181 65.0372C62.3934 63.5194 63.0054 62.0322 63.6541 60.5696C64.3028 59.1069 64.9822 57.6626 65.6982 56.2366C66.4142 54.8106 67.1364 53.4153 67.9626 51.9893C68.4192 51.1732 69.1794 50.5703 70.078 50.3115C70.9766 50.0527 71.9411 50.159 72.7618 50.6072C73.5825 51.0555 74.1932 51.8095 74.4611 52.7054C74.729 53.6013 74.6326 54.5668 74.1928 55.392L74.1254 55.4226Z" fill="#D9D9D9"/>
<path d="M77.6383 53.2436C77.8831 57.9132 72.5832 66.4873 72.5832 66.4873L61.6713 61.0344C62.9974 57.1667 65.0496 53.5877 67.7178 50.4896C73.489 44.1126 77.4119 48.9596 77.6383 53.2436Z" fill="#263238"/>
<path d="M70.2454 83.679L72.4424 87.351L77.0141 84.4256C76.2156 82.9947 74.9651 81.869 73.4584 81.2249C73.1099 81.1136 72.7332 81.1308 72.3964 81.2734C72.0596 81.416 71.785 81.6745 71.6224 82.0021L70.2454 83.679Z" fill="#D9D9D9"/>
<path d="M74.2724 88.9175L76.396 88.5197C76.5748 88.4867 76.7452 88.4186 76.8976 88.3193C77.0499 88.22 77.181 88.0916 77.2834 87.9414C77.3858 87.7912 77.4575 87.6222 77.4943 87.4441C77.531 87.2661 77.5322 87.0825 77.4976 86.9041L77.0141 84.4561L72.4425 87.3814L72.7485 88.1219C72.8737 88.4085 73.0931 88.6436 73.3702 88.7883C73.6474 88.933 73.9657 88.9786 74.2724 88.9175Z" fill="#D9D9D9"/>
<path d="M87.1672 29.7804C87.21 30.1782 87.4609 30.4903 87.718 30.4659C87.975 30.4414 88.1464 30.1048 88.0974 29.707C88.0485 29.3092 87.8037 28.9971 87.5466 29.0154C87.2896 29.0338 87.1182 29.3765 87.1672 29.7804Z" fill="#263238"/>
<path d="M87.4243 30.4902C88.0433 31.6789 88.8148 32.7816 89.7193 33.7706C89.1073 34.4866 87.8833 34.2785 87.8833 34.2785L87.4243 30.4902Z" fill="#FF5652"/>
<path d="M85.4535 27.6692C85.4854 27.6739 85.5178 27.6714 85.5486 27.6619C85.5793 27.6524 85.6075 27.636 85.631 27.6141C85.8432 27.4154 86.1009 27.2719 86.3816 27.1961C86.6623 27.1203 86.9572 27.1147 87.2406 27.1796C87.2695 27.1889 87.3 27.192 87.3302 27.1889C87.3604 27.1858 87.3897 27.1765 87.4161 27.1616C87.4425 27.1466 87.4656 27.1264 87.4838 27.1021C87.5021 27.0778 87.5151 27.05 87.5221 27.0205C87.5374 26.9597 87.5288 26.8953 87.4981 26.8406C87.4673 26.786 87.4168 26.7452 87.3569 26.7267C86.9991 26.6413 86.6258 26.6446 86.2695 26.7364C85.9133 26.8281 85.5849 27.0055 85.3128 27.253C85.29 27.2748 85.2719 27.3009 85.2595 27.3298C85.2471 27.3587 85.2407 27.3899 85.2407 27.4213C85.2407 27.4528 85.2471 27.484 85.2595 27.5129C85.2719 27.5418 85.29 27.5679 85.3128 27.5896C85.3297 27.6116 85.3509 27.63 85.3751 27.6437C85.3993 27.6573 85.426 27.666 85.4535 27.6692Z" fill="#263238"/>
<path d="M74.8293 34.2109C75.9983 37.7544 77.5527 44.2845 75.3373 46.9038C75.3373 46.9038 76.7939 50.4718 83.5014 49.9026C90.8882 49.2906 86.5614 45.9552 86.5614 45.9552C82.412 45.3432 82.1305 42.3505 82.4732 39.4925L74.8293 34.2109Z" fill="#D9D9D9"/>
<path d="M73.7522 48.1956C73.0606 47.0879 72.2895 45.821 73.5992 45.3498C75.0374 44.8296 83.1158 43.985 85.9922 44.6949C88.8686 45.4049 88.2811 47.7549 88.2811 47.7549L73.7522 48.1956Z" fill="#818181"/>
<path d="M97.406 49.6883C98.4586 50.6552 99.597 51.7262 100.729 52.7054C101.861 53.6846 103.006 54.6883 104.156 55.6553C105.307 56.6222 106.482 57.5341 107.663 58.4215C108.844 59.3089 110.044 60.1168 111.243 60.8695L108.795 60.637C109.813 60.3656 110.775 59.9204 111.641 59.3211C112.653 58.6141 113.592 57.8085 114.444 56.916C115.363 55.9758 116.223 54.9805 117.021 53.9356C117.431 53.4031 117.841 52.8646 118.245 52.3076C118.649 51.7507 119.016 51.1632 119.352 50.6491L119.42 50.5512C119.652 50.1962 120.004 49.9366 120.412 49.8197C120.82 49.7028 121.257 49.7366 121.642 49.9147C122.027 50.0928 122.335 50.4034 122.51 50.7899C122.686 51.1764 122.716 51.613 122.596 52.02C122.363 52.8156 122.119 53.4949 121.837 54.2048C121.556 54.9148 121.262 55.6124 120.931 56.2979C120.261 57.6961 119.477 59.0368 118.587 60.3065C117.653 61.6529 116.565 62.8853 115.344 63.9785C113.992 65.1847 112.425 66.1234 110.723 66.7447C110.358 66.8734 109.971 66.9283 109.584 66.9063C109.198 66.8842 108.819 66.7856 108.471 66.6162L108.269 66.5121C106.749 65.7653 105.274 64.9316 103.85 64.0152C102.461 63.1156 101.115 62.1792 99.8173 61.1755C98.5198 60.1718 97.2652 59.1559 96.0412 58.1155C94.8172 57.0751 93.6422 55.9858 92.4488 54.7679C91.8138 54.1055 91.4599 53.223 91.4614 52.3054C91.463 51.3878 91.8198 50.5064 92.4571 49.8462C93.0943 49.1859 93.9625 48.7982 94.8795 48.7642C95.7965 48.7302 96.691 49.0526 97.3754 49.6638L97.406 49.6883Z" fill="#D9D9D9"/>
<path d="M93.6667 46.5125C93.6667 46.5125 99.8356 52.4979 100.552 89.5178C90.6862 91.9107 81.1941 92.792 73.8623 91.8617C73.5135 87.2166 72.9933 71.0966 68.2809 54.1013C68.0785 53.3855 68.0271 52.6354 68.1299 51.8987C68.2328 51.1619 68.4877 50.4546 68.8784 49.8216C69.2691 49.1886 69.7872 48.6437 70.3997 48.2216C71.0122 47.7994 71.7058 47.5092 72.4364 47.3693C73.3727 47.1857 74.3581 47.0205 75.3373 46.892C79.0572 46.3598 82.8048 46.0431 86.5613 45.9434C88.9404 45.9628 91.3149 46.153 93.6667 46.5125Z" fill="#263238"/>
<path d="M88.8808 52.9629C89.4928 57.5958 97.4488 66.5004 97.4488 66.5004L106.892 56.7084C104.087 53.7634 101.054 51.0438 97.8221 48.5749C90.9004 43.4035 88.33 48.6667 88.8808 52.9629Z" fill="#263238"/>
<path d="M121.984 53.6481L125.142 50.7534L121.36 46.8672C120.109 47.9325 119.247 49.3836 118.912 50.9921C118.875 51.3598 118.972 51.7285 119.186 52.0299C119.4 52.3314 119.715 52.5454 120.074 52.6322L121.984 53.6481Z" fill="#D9D9D9"/>
<path d="M126.305 48.6484L125.491 46.6472C125.422 46.4755 125.319 46.3193 125.189 46.188C125.058 46.0567 124.903 45.9529 124.732 45.8827C124.561 45.8125 124.377 45.7774 124.192 45.7794C124.007 45.7814 123.824 45.8205 123.655 45.8944L121.335 46.8675L125.117 50.7537L125.778 50.3069C126.044 50.1333 126.241 49.8735 126.337 49.5713C126.433 49.2692 126.421 48.9432 126.305 48.6484Z" fill="#D9D9D9"/>
<path d="M73.8868 29.9885C74.7742 34.8845 75.0435 37.7853 77.7975 40.1171C81.9407 43.6238 87.6568 40.8943 88.2015 35.8943C88.7156 31.3899 87.1794 24.1377 82.1978 22.5588C77.2161 20.9798 72.9994 25.0925 73.8868 29.9885Z" fill="#D9D9D9"/>
<path d="M83.538 31.751C85.2578 32.1427 86.598 30.1537 86.7816 29.5907C85.9432 29.6702 84.456 29.2418 84.1623 28.8624C85.0803 28.942 85.9677 27.8098 86.0778 27.3752C85.1039 27.1872 84.2413 26.6275 83.6727 25.8146C85.1598 25.784 86.9469 23.1647 85.3128 20.8207C83.6788 18.4767 76.8489 20.4413 75.888 18.7705C74.456 19.6028 75.7289 20.7105 75.7289 20.7105C75.7289 20.7105 66.0654 22.5465 70.5208 26.2736C67.2527 26.5674 66.7937 30.4291 69.5171 32.3936C72.2405 34.3581 72.3813 35.6556 71.298 35.4965C71.7326 36.3288 73.6726 36.4389 73.7828 35.6311C74.2418 37.3263 75.5637 39.6213 78.6114 39.248C81.6592 38.8747 84.6458 34.6091 83.538 31.751Z" fill="#263238"/>
<path d="M71.3654 25.7037C69.0642 26.022 68.0177 24.7245 68.593 23.5801C65.7411 25.0366 68.8562 28.2558 71.3654 25.7037Z" fill="#263238"/>
<path d="M81.1573 31.0043C81.5534 32.03 82.2539 32.9099 83.1647 33.5258C84.3887 34.3336 85.4964 33.5258 85.2883 32.3018C85.0986 31.1757 84.2357 29.3948 82.9627 29.0765C82.6991 28.99 82.4163 28.9806 82.1475 29.0494C81.8786 29.1182 81.6351 29.2623 81.4454 29.4648C81.2558 29.6673 81.1279 29.9198 81.0769 30.1926C81.0258 30.4653 81.0537 30.7469 81.1573 31.0043Z" fill="#D9D9D9"/>
<path d="M236.709 203.503C232.181 192.818 230.351 180.247 235.534 180.768C240.853 181.282 240.228 200.229 241.091 202.31C239.433 203.736 236.709 203.503 236.709 203.503Z" fill="#818181"/>
<path d="M238.178 183.228C237.064 187.303 235.883 193.601 234.984 198.938C235.498 200.468 236.079 201.998 236.709 203.503C236.709 203.503 239.427 203.736 241.097 202.31C240.412 200.67 240.657 188.527 238.178 183.228Z" fill="#263238"/>
<path d="M238.203 201.544C236.783 178.839 240.651 157.792 250.834 158.741C259.574 159.561 246.832 197.786 247.077 202.193C243.074 203.747 238.203 201.544 238.203 201.544Z" fill="#818181"/>
<path d="M244.8 201.397C246.397 185.075 255.008 166.03 258.705 172.394C263.399 180.473 251.361 199.714 251.036 202.878C248.025 203.527 244.8 201.397 244.8 201.397Z" fill="#818181"/>
<path d="M243.19 164.806C242.156 164.634 241.581 163.992 241.648 163.08C241.722 162.052 242.566 161.03 243.349 161.018C243.729 161.018 244.365 161.213 244.525 162.627L243.913 162.701C243.839 162.027 243.637 161.63 243.368 161.63C242.952 161.63 242.315 162.388 242.266 163.123C242.223 163.735 242.566 164.078 243.294 164.2L243.19 164.806Z" fill="#818181"/>
<path d="M254.182 168.912C253.737 168.876 253.312 168.712 252.958 168.44L253.289 167.932C253.858 168.3 254.298 168.398 254.47 168.19C254.727 167.859 254.549 166.892 254.017 166.384C253.588 165.974 253.087 166.005 252.53 166.494L252.132 166.029C252.275 165.868 252.45 165.737 252.645 165.645C252.84 165.553 253.052 165.501 253.267 165.493C253.483 165.485 253.698 165.521 253.899 165.598C254.101 165.676 254.284 165.793 254.439 165.943C255.186 166.653 255.437 167.951 254.947 168.569C254.857 168.683 254.74 168.774 254.607 168.834C254.473 168.894 254.328 168.92 254.182 168.912Z" fill="#818181"/>
<path d="M239.182 178.154C238.811 178.181 238.444 178.071 238.149 177.846C237.853 177.62 237.651 177.295 237.579 176.93C237.334 175.933 237.823 174.703 238.57 174.446C238.919 174.329 239.592 174.317 240.18 175.621L239.616 175.878C239.341 175.266 239.004 174.935 238.766 175.027C238.374 175.162 238.001 176.073 238.154 176.783C238.295 177.395 238.766 177.603 239.463 177.493L239.555 178.105C239.432 178.132 239.308 178.149 239.182 178.154Z" fill="#818181"/>
<path d="M232.664 190.828C232.366 190.835 232.072 190.752 231.822 190.589C231.572 190.426 231.377 190.192 231.263 189.916C230.834 188.98 231.085 187.677 231.764 187.285C232.089 187.101 232.75 186.967 233.57 188.142L233.068 188.49C232.676 187.934 232.303 187.683 232.07 187.817C231.709 188.025 231.513 188.992 231.819 189.653C232.07 190.198 232.548 190.345 233.239 190.1L233.441 190.681C233.193 190.775 232.93 190.825 232.664 190.828Z" fill="#818181"/>
<path d="M243.509 172.352C243.445 172.352 243.384 172.333 243.331 172.297C242.951 172.087 242.66 171.746 242.511 171.338C242.363 170.929 242.367 170.481 242.523 170.076C242.7 169.669 243.004 169.33 243.389 169.11C243.773 168.889 244.219 168.799 244.659 168.852C245.039 168.919 245.926 169.255 245.987 170.883C245.987 170.965 245.955 171.042 245.898 171.1C245.84 171.157 245.762 171.189 245.681 171.189C245.6 171.189 245.522 171.157 245.465 171.1C245.408 171.042 245.375 170.965 245.375 170.883C245.339 170.033 245.051 169.519 244.549 169.427C244.245 169.402 243.94 169.474 243.678 169.631C243.416 169.787 243.209 170.022 243.086 170.302C242.866 170.822 243.086 171.348 243.698 171.783C243.752 171.82 243.792 171.874 243.813 171.936C243.834 171.998 243.835 172.065 243.815 172.127C243.795 172.189 243.756 172.243 243.703 172.282C243.65 172.32 243.586 172.34 243.521 172.34L243.509 172.352Z" fill="white"/>
<path d="M250.761 188.87C250.691 188.871 250.623 188.846 250.569 188.802C250.515 188.757 250.479 188.694 250.467 188.625C250.458 188.586 250.457 188.545 250.464 188.506C250.471 188.467 250.486 188.429 250.507 188.395C250.529 188.362 250.557 188.333 250.59 188.31C250.623 188.287 250.661 188.272 250.7 188.264C251.532 188.092 251.991 187.719 252.003 187.211C251.976 186.907 251.854 186.618 251.656 186.386C251.458 186.154 251.192 185.988 250.896 185.914C250.345 185.779 249.855 186.079 249.531 186.752C249.513 186.788 249.488 186.821 249.458 186.847C249.428 186.874 249.393 186.894 249.355 186.907C249.317 186.92 249.277 186.926 249.236 186.923C249.196 186.921 249.157 186.911 249.121 186.893C249.085 186.875 249.052 186.851 249.026 186.82C248.999 186.79 248.979 186.755 248.965 186.717C248.952 186.679 248.947 186.639 248.949 186.598C248.952 186.558 248.962 186.519 248.98 186.483C249.13 186.077 249.419 185.737 249.795 185.523C250.171 185.309 250.611 185.235 251.036 185.314C251.468 185.421 251.855 185.663 252.139 186.006C252.423 186.348 252.59 186.773 252.615 187.217C252.615 187.603 252.419 188.533 250.828 188.863L250.761 188.87Z" fill="white"/>
<path d="M259.366 183.711C259.011 183.711 258.539 183.502 258.013 182.713L258.521 182.37C258.9 182.933 259.262 183.19 259.5 183.062C259.867 182.866 260.112 181.899 259.788 181.226C259.555 180.681 259.078 180.522 258.38 180.748L258.191 180.167C259.182 179.843 259.99 180.167 260.351 180.987C260.761 181.93 260.486 183.227 259.794 183.6C259.663 183.674 259.516 183.712 259.366 183.711Z" fill="#818181"/>
<path d="M257.542 207.389C257.546 204.123 256.375 200.964 254.243 198.49C254.452 198.46 254.644 198.355 254.783 198.196C254.922 198.037 255 197.833 255.002 197.621C255 197.382 254.904 197.153 254.735 196.985C254.565 196.816 254.335 196.722 254.096 196.722H233.607C233.383 196.725 233.169 196.811 233.007 196.964C232.844 197.117 232.745 197.325 232.728 197.548C232.711 197.77 232.778 197.991 232.916 198.166C233.053 198.342 233.252 198.46 233.472 198.496C232.132 200.053 231.16 201.892 230.629 203.876C230.097 205.859 230.02 207.938 230.403 209.956C230.786 211.973 231.619 213.879 232.84 215.531C234.061 217.182 235.639 218.537 237.456 219.494C237.258 219.596 237.1 219.762 237.008 219.965C236.916 220.167 236.894 220.395 236.947 220.612C237 220.828 237.125 221.02 237.3 221.157C237.476 221.294 237.692 221.368 237.915 221.367H249.782C250.044 221.365 250.295 221.26 250.481 221.075C250.667 220.889 250.772 220.638 250.773 220.375C250.772 220.194 250.722 220.017 250.628 219.861C250.535 219.706 250.401 219.579 250.241 219.494C252.444 218.332 254.289 216.591 255.575 214.457C256.862 212.324 257.542 209.88 257.542 207.389Z" fill="#263238"/>
</g>
<path opacity="0.5" d="M78.484 298.006H75.124L67.516 286.51V298.006H64.156V281.23H67.516L75.124 292.75V281.23H78.484V298.006ZM87.7084 298.222C86.4284 298.222 85.2764 297.942 84.2524 297.382C83.2284 296.806 82.4204 295.998 81.8284 294.958C81.2524 293.918 80.9644 292.718 80.9644 291.358C80.9644 289.998 81.2604 288.798 81.8524 287.758C82.4604 286.718 83.2844 285.918 84.3244 285.358C85.3644 284.782 86.5244 284.494 87.8044 284.494C89.0844 284.494 90.2444 284.782 91.2844 285.358C92.3244 285.918 93.1404 286.718 93.7324 287.758C94.3404 288.798 94.6444 289.998 94.6444 291.358C94.6444 292.718 94.3324 293.918 93.7084 294.958C93.1004 295.998 92.2684 296.806 91.2124 297.382C90.1724 297.942 89.0044 298.222 87.7084 298.222ZM87.7084 295.294C88.3164 295.294 88.8844 295.15 89.4124 294.862C89.9564 294.558 90.3884 294.11 90.7084 293.518C91.0284 292.926 91.1884 292.206 91.1884 291.358C91.1884 290.094 90.8524 289.126 90.1804 288.454C89.5244 287.766 88.7164 287.422 87.7564 287.422C86.7964 287.422 85.9884 287.766 85.3324 288.454C84.6924 289.126 84.3724 290.094 84.3724 291.358C84.3724 292.622 84.6844 293.598 85.3084 294.286C85.9484 294.958 86.7484 295.294 87.7084 295.294ZM117.156 298.006H113.796L106.188 286.51V298.006H102.828V281.23H106.188L113.796 292.75V281.23H117.156V298.006ZM126.38 298.222C125.1 298.222 123.948 297.942 122.924 297.382C121.9 296.806 121.092 295.998 120.5 294.958C119.924 293.918 119.636 292.718 119.636 291.358C119.636 289.998 119.932 288.798 120.524 287.758C121.132 286.718 121.956 285.918 122.996 285.358C124.036 284.782 125.196 284.494 126.476 284.494C127.756 284.494 128.916 284.782 129.956 285.358C130.996 285.918 131.812 286.718 132.404 287.758C133.012 288.798 133.316 289.998 133.316 291.358C133.316 292.718 133.004 293.918 132.38 294.958C131.772 295.998 130.94 296.806 129.884 297.382C128.844 297.942 127.676 298.222 126.38 298.222ZM126.38 295.294C126.988 295.294 127.556 295.15 128.084 294.862C128.628 294.558 129.06 294.11 129.38 293.518C129.7 292.926 129.86 292.206 129.86 291.358C129.86 290.094 129.524 289.126 128.852 288.454C128.196 287.766 127.388 287.422 126.428 287.422C125.468 287.422 124.66 287.766 124.004 288.454C123.364 289.126 123.044 290.094 123.044 291.358C123.044 292.622 123.356 293.598 123.98 294.286C124.62 294.958 125.42 295.294 126.38 295.294ZM139.693 287.47V293.902C139.693 294.35 139.797 294.678 140.005 294.886C140.229 295.078 140.597 295.174 141.109 295.174H142.669V298.006H140.557C137.725 298.006 136.309 296.63 136.309 293.878V287.47H134.725V284.71H136.309V281.422H139.693V284.71H142.669V287.47H139.693ZM146.79 283.126C146.198 283.126 145.702 282.942 145.302 282.574C144.918 282.19 144.726 281.718 144.726 281.158C144.726 280.598 144.918 280.134 145.302 279.766C145.702 279.382 146.198 279.19 146.79 279.19C147.382 279.19 147.87 279.382 148.254 279.766C148.654 280.134 148.854 280.598 148.854 281.158C148.854 281.718 148.654 282.19 148.254 282.574C147.87 282.942 147.382 283.126 146.79 283.126ZM148.446 284.71V298.006H145.086V284.71H148.446ZM157.861 287.47H155.533V298.006H152.125V287.47H150.613V284.71H152.125V284.038C152.125 282.406 152.589 281.206 153.517 280.438C154.445 279.67 155.845 279.31 157.717 279.358V282.19C156.901 282.174 156.333 282.31 156.013 282.598C155.693 282.886 155.533 283.406 155.533 284.158V284.71H157.861V287.47ZM161.743 283.126C161.151 283.126 160.655 282.942 160.255 282.574C159.871 282.19 159.679 281.718 159.679 281.158C159.679 280.598 159.871 280.134 160.255 279.766C160.655 279.382 161.151 279.19 161.743 279.19C162.335 279.19 162.823 279.382 163.207 279.766C163.607 280.134 163.807 280.598 163.807 281.158C163.807 281.718 163.607 282.19 163.207 282.574C162.823 282.942 162.335 283.126 161.743 283.126ZM163.399 284.71V298.006H160.039V284.71H163.399ZM165.854 291.358C165.854 289.982 166.135 288.782 166.695 287.758C167.255 286.718 168.031 285.918 169.023 285.358C170.015 284.782 171.151 284.494 172.431 284.494C174.079 284.494 175.439 284.91 176.511 285.742C177.599 286.558 178.327 287.71 178.695 289.198H175.071C174.879 288.622 174.551 288.174 174.087 287.854C173.639 287.518 173.079 287.35 172.407 287.35C171.447 287.35 170.687 287.702 170.127 288.406C169.567 289.094 169.287 290.078 169.287 291.358C169.287 292.622 169.567 293.606 170.127 294.31C170.687 294.998 171.447 295.342 172.407 295.342C173.767 295.342 174.655 294.734 175.071 293.518H178.695C178.327 294.958 177.599 296.102 176.511 296.95C175.423 297.798 174.063 298.222 172.431 298.222C171.151 298.222 170.015 297.942 169.023 297.382C168.031 296.806 167.255 296.006 166.695 294.982C166.135 293.942 165.854 292.734 165.854 291.358ZM180.292 291.31C180.292 289.966 180.556 288.774 181.084 287.734C181.628 286.694 182.356 285.894 183.268 285.334C184.196 284.774 185.228 284.494 186.364 284.494C187.356 284.494 188.22 284.694 188.956 285.094C189.708 285.494 190.308 285.998 190.756 286.606V284.71H194.14V298.006H190.756V296.062C190.324 296.686 189.724 297.206 188.956 297.622C188.204 298.022 187.332 298.222 186.34 298.222C185.22 298.222 184.196 297.934 183.268 297.358C182.356 296.782 181.628 295.974 181.084 294.934C180.556 293.878 180.292 292.67 180.292 291.31ZM190.756 291.358C190.756 290.542 190.596 289.846 190.276 289.27C189.956 288.678 189.524 288.23 188.98 287.926C188.436 287.606 187.852 287.446 187.228 287.446C186.604 287.446 186.028 287.598 185.5 287.902C184.972 288.206 184.54 288.654 184.204 289.246C183.884 289.822 183.724 290.51 183.724 291.31C183.724 292.11 183.884 292.814 184.204 293.422C184.54 294.014 184.972 294.47 185.5 294.79C186.044 295.11 186.62 295.27 187.228 295.27C187.852 295.27 188.436 295.118 188.98 294.814C189.524 294.494 189.956 294.046 190.276 293.47C190.596 292.878 190.756 292.174 190.756 291.358ZM201.334 287.47V293.902C201.334 294.35 201.438 294.678 201.646 294.886C201.87 295.078 202.238 295.174 202.75 295.174H204.31V298.006H202.198C199.366 298.006 197.95 296.63 197.95 293.878V287.47H196.366V284.71H197.95V281.422H201.334V284.71H204.31V287.47H201.334ZM208.43 283.126C207.838 283.126 207.342 282.942 206.942 282.574C206.558 282.19 206.366 281.718 206.366 281.158C206.366 280.598 206.558 280.134 206.942 279.766C207.342 279.382 207.838 279.19 208.43 279.19C209.022 279.19 209.51 279.382 209.894 279.766C210.294 280.134 210.494 280.598 210.494 281.158C210.494 281.718 210.294 282.19 209.894 282.574C209.51 282.942 209.022 283.126 208.43 283.126ZM210.086 284.71V298.006H206.726V284.71H210.086ZM219.31 298.222C218.03 298.222 216.878 297.942 215.854 297.382C214.83 296.806 214.022 295.998 213.43 294.958C212.854 293.918 212.566 292.718 212.566 291.358C212.566 289.998 212.862 288.798 213.454 287.758C214.062 286.718 214.886 285.918 215.926 285.358C216.966 284.782 218.126 284.494 219.406 284.494C220.686 284.494 221.846 284.782 222.886 285.358C223.926 285.918 224.742 286.718 225.334 287.758C225.942 288.798 226.246 289.998 226.246 291.358C226.246 292.718 225.934 293.918 225.31 294.958C224.702 295.998 223.87 296.806 222.814 297.382C221.774 297.942 220.606 298.222 219.31 298.222ZM219.31 295.294C219.918 295.294 220.486 295.15 221.014 294.862C221.558 294.558 221.99 294.11 222.31 293.518C222.63 292.926 222.79 292.206 222.79 291.358C222.79 290.094 222.454 289.126 221.782 288.454C221.126 287.766 220.318 287.422 219.358 287.422C218.398 287.422 217.59 287.766 216.934 288.454C216.294 289.126 215.974 290.094 215.974 291.358C215.974 292.622 216.286 293.598 216.91 294.286C217.55 294.958 218.35 295.294 219.31 295.294ZM236.079 284.518C237.663 284.518 238.943 285.022 239.919 286.03C240.895 287.022 241.383 288.414 241.383 290.206V298.006H238.023V290.662C238.023 289.606 237.759 288.798 237.231 288.238C236.703 287.662 235.983 287.374 235.071 287.374C234.143 287.374 233.407 287.662 232.863 288.238C232.335 288.798 232.071 289.606 232.071 290.662V298.006H228.711V284.71H232.071V286.366C232.519 285.79 233.087 285.342 233.775 285.022C234.479 284.686 235.247 284.518 236.079 284.518Z" fill="#28C870"/>
</svg>
